<?xml version="1.0" encoding="UTF-8"?>
<svg id="Layer_2" data-name="Layer 2" xmlns="http://www.w3.org/2000/svg" viewBox="0 0 404.29 404.29">
  <defs>
    <style>
      .cls-1 {
        fill: #fff;
      }
    </style>
  </defs>
  <g id="Layer_1-2" data-name="Layer 1">
    <rect y="0" width="404.29" height="404.29" rx="99.02" ry="99.02"/>
    <path class="cls-1" d="M261.52,250.68c-14.3,4.29-28.29-2.02-33.24-16.29-2.35-6.63-2.64-14.02-2.8-21.1-.07-6.03-.16-12.37.4-18.04,1.78-21.81,17.51-17.98,18.43-26.61-.46-4.84-6.29-10.26-10.17-14.56-5.05-5.15-9.89-10.8-15.5-15.15-5.24-4.17-10-3.16-14.78,1.01-4.03,3.38-7.64,7.33-11.42,11.22-2.24,2.33-4.49,4.68-6.44,6.87-4.12,4.91-9.3,10.03-4.87,14.46,3.29,3.07,8,5.22,11.57,9.83,7.19,9.24,4.1,22.78,3.21,33.78-4.94,35.87-17.22,99.6-48.22,121.49-18.85,13.47-38.28,4.75-47.55-15.56-17.66-36.86-3.9-108.61,4.12-148.5,7.21-32.25,16.29-65.24,40.98-88.1,54.32-50.85,139.84-24.13,161.48,45.38,14.59,43.11,1.05,103.5-45.08,119.84l-.11.03Z"/>
  </g>
</svg>